<?xml version="1.0" standalone="no"?>
<!DOCTYPE svg PUBLIC "-//W3C//DTD SVG 20010904//EN"
 "http://www.w3.org/TR/2001/REC-SVG-20010904/DTD/svg10.dtd">
<svg version="1.0" xmlns="http://www.w3.org/2000/svg"
 width="160.000000pt" height="160.000000pt" viewBox="0 0 160.000000 160.000000"
 preserveAspectRatio="xMidYMid meet">
<metadata>
Created by potrace 1.14, written by Peter Selinger 2001-2017
</metadata>
<g transform="translate(0.000000,160.000000) scale(0.100000,-0.100000)"
fill="#000000" stroke="none">
<path d="M0 800 l0 -800 800 0 800 0 0 800 0 800 -800 0 -800 0 0 -800z m1554
771 c4 -5 3 -16 0 -25 -5 -13 -32 -16 -167 -18 l-162 -3 -3 -82 c-2 -62 0 -83
10 -84 7 0 81 0 164 1 145 1 151 1 157 -19 5 -21 3 -21 -246 -20 -167 0 -253
-4 -255 -11 -2 -5 -15 -10 -28 -10 -24 0 -24 -1 -24 -90 0 -82 2 -90 19 -90
24 0 33 -13 25 -34 -5 -13 -29 -16 -132 -18 l-127 -3 -3 -82 c-2 -62 0 -83 10
-84 7 -1 65 0 130 1 110 2 116 1 123 -19 8 -26 -1 -41 -26 -41 -17 0 -19 -8
-19 -90 0 -82 2 -90 19 -90 24 0 33 -13 25 -34 -5 -13 -29 -16 -132 -18 l-127
-3 -3 -82 c-2 -62 0 -83 10 -84 7 -1 65 0 130 1 110 2 116 1 123 -19 8 -26 -1
-41 -26 -41 -17 0 -19 -8 -19 -90 0 -82 2 -90 19 -90 24 0 33 -13 25 -34 -5
-13 -29 -16 -132 -18 l-127 -3 -5 -65 c-4 -49 -9 -65 -20 -65 -12 0 -16 15
-18 68 l-3 67 -88 0 c-89 0 -101 5 -101 41 0 5 87 9 205 9 l205 0 0 90 0 90
-205 0 c-189 0 -205 1 -205 18 0 38 14 44 101 41 l84 -4 3 88 3 87 -90 0 c-89
0 -101 5 -101 41 0 5 87 9 205 9 l205 0 0 90 0 90 -205 0 c-189 0 -205 1 -205
18 0 38 14 44 101 41 l84 -4 3 88 3 87 -90 0 c-89 0 -101 5 -101 41 0 5 87 9
205 9 l205 0 0 90 0 90 -204 0 c-134 0 -206 4 -208 11 -2 7 -87 10 -255 10
-249 -1 -251 -1 -246 20 5 19 12 20 127 18 l121 -3 3 87 3 87 -125 0 c-126 0
-136 3 -136 41 0 12 1507 12 1514 0z"/>
<path d="M347 1523 c-4 -3 -7 -42 -7 -85 0 -55 4 -78 13 -79 6 0 95 0 197 0
l185 0 3 85 3 86 -194 0 c-106 0 -197 -3 -200 -7z"/>
<path d="M787 1523 c-4 -3 -7 -42 -7 -85 0 -55 4 -78 13 -79 6 0 95 0 197 0
l185 0 3 85 3 86 -194 0 c-106 0 -197 -3 -200 -7z"/>
</g>
</svg>
